# xmcd
#
# Track frame offsets:
#	150
#	14192
#	29292
#	44253
#	60494
#	78216
#	91523
#	109339
#	131363
#	153766
#	167662
#	180939
#	197558
#
# Disc length: 2823 seconds
#
# Revision: 0
# Processed by: cddbd v1.5.2PL0 Copyright (c) Steve Scherf et al.
# Submitted via: dBpowerAMP V4.0
#
DISCID=920b050d
DTITLE=George Belliveau - L'Amour Viendra Nous Sauver
DYEAR=1900
DGENRE=Country
TTITLE0=Moments Kokak
TTITLE1=Cadillac
TTITLE2=Durs sur les Fonds de Culottes
TTITLE3=Le Dernier
TTITLE4=Océane
TTITLE5=Les Dimanches
TTITLE6=Martini à la Tête
TTITLE7=Pour l'amour du Ciel
TTITLE8=La Saison des Cerices
TTITLE9=Brisé
TTITLE10=Louisiane
TTITLE11=L'Amour Viendra Nous Sauver
TTITLE12="R"
EXTD=French country album. Artist from New Brunswick, Canada.
EXTT0=
EXTT1=
EXTT2=
EXTT3=
EXTT4=
EXTT5=
EXTT6=
EXTT7=
EXTT8=
EXTT9=
EXTT10=
EXTT11=
EXTT12=
PLAYORDER=
